#Comment line ignore any data following # character 
#Hierarchical Translation and Rotation (.htr) file 
[Header]	
#Header keywords are followed by a single value 
FileType HTR		#Single word string
DataType HTRS		#Translation followed by rotation and scale data
FileVersion 1		#integer
NumSegments 84		#integer
NumFrames 2		#integer
DataFrameRate 30		#integer, data frame rate in this file
EulerRotationOrder ZYX
CalibrationUnits mm
RotationUnits Degrees
GlobalAxisofGravity Y
BoneLengthAxis Y
ScaleFactor 1.00
[SegmentNames&Hierarchy]
#CHILD	PARENT
MASTER GLOBAL
root MASTER
chest root
L_mid_tent01 root
R_mid_tent01 root
spine01 root
Bip01_Neck chest
L_humerus chest
R_humerus chest
weapon_bone chest
Bip01_Head Bip01_Neck
eye_left_bone Bip01_Head
eye_right_bone Bip01_Head
L_forearm L_humerus
L_front_hand L_forearm
L_weapon_bone L_forearm
L_front_hand01_01 L_front_hand
L_front_hand02_01 L_front_hand
L_front_hand03_01 L_front_hand
L_front_hand01_02 L_front_hand01_01
L_front_hand02_02 L_front_hand02_01
L_front_hand03_02 L_front_hand03_01
R_forearm R_humerus
R_front_hand R_forearm
R_weapon_bone R_forearm
R_front_hand01_01 R_front_hand
R_front_hand02_01 R_front_hand
R_front_hand03_01 R_front_hand
R_front_hand01_02 R_front_hand01_01
R_front_hand02_02 R_front_hand02_01
R_front_hand03_02 R_front_hand03_01
null_rope01_connect L_mid_tent01
Rope1_Seg01 null_rope01_connect
Rope1_Seg02 Rope1_Seg01
Rope1_Seg03 Rope1_Seg02
Rope1_Seg04 Rope1_Seg03
Rope1_Seg05 Rope1_Seg04
Rope1_Seg06 Rope1_Seg05
Rope1_Seg07 Rope1_Seg06
Rope1_Seg09 Rope1_Seg07
L_mid_hand01 Rope1_Seg09
L_mid_hand02 Rope1_Seg09
L_mid_hand03 Rope1_Seg09
null_rope02_connect R_mid_tent01
Rope2_Seg01 null_rope02_connect
Rope2_Seg02 Rope2_Seg01
Rope2_Seg03 Rope2_Seg02
Rope2_Seg04 Rope2_Seg03
Rope2_Seg05 Rope2_Seg04
Rope2_Seg06 Rope2_Seg05
Rope2_Seg07 Rope2_Seg06
Rope2_Seg09 Rope2_Seg07
R_mid_hand01 Rope2_Seg09
R_mid_hand02 Rope2_Seg09
R_mid_hand03 Rope2_Seg09
spine02 spine01
spine03 spine02
pelvis spine03
null_rope03_connect pelvis
null_rope04_connect pelvis
Rope3_Seg01 null_rope03_connect
Rope3_Seg02 Rope3_Seg01
Rope3_Seg03 Rope3_Seg02
Rope3_Seg04 Rope3_Seg03
Rope3_Seg05 Rope3_Seg04
Rope3_Seg06 Rope3_Seg05
Rope3_Seg07 Rope3_Seg06
Rope3_Seg08 Rope3_Seg07
Rope3_Seg09 Rope3_Seg08
R_rear_hand01 Rope3_Seg09
R_rear_hand02 Rope3_Seg09
R_rear_hand03 Rope3_Seg09
Rope4_Seg01 null_rope04_connect
Rope4_Seg02 Rope4_Seg01
Rope4_Seg03 Rope4_Seg02
Rope4_Seg04 Rope4_Seg03
Rope4_Seg05 Rope4_Seg04
Rope4_Seg06 Rope4_Seg05
Rope4_Seg07 Rope4_Seg06
Rope4_Seg08 Rope4_Seg07
Rope4_Seg09 Rope4_Seg08
L_rear_hand01 Rope4_Seg09
L_rear_hand02 Rope4_Seg09
L_rear_hand03 Rope4_Seg09
[BasePosition]
#SegmentName Tx, Ty, Tz, Rx, Ry, Rz, BoneLength
MASTER 0.000000 0.000000 0.000000 -90.000000 0.000000 0.000000 10.000000 
root 0.000000 0.000000 0.000000 0.000000 0.000000 0.000000 10.000000 
chest 0.000000 0.000000 0.000000 0.000000 0.000000 0.000000 10.000000 
L_mid_tent01 0.000000 0.000000 0.000000 0.000000 0.000000 0.000000 10.000000 
R_mid_tent01 0.000000 0.000000 0.000000 0.000000 0.000000 0.000000 10.000000 
spine01 0.000000 0.000000 0.000000 0.000000 0.000000 0.000000 10.000000 
Bip01_Neck 0.000000 0.000000 0.000000 0.000000 0.000000 0.000000 10.000000 
L_humerus 0.000000 0.000000 0.000000 0.000000 0.000000 0.000000 10.000000 
R_humerus 0.000000 0.000000 0.000000 0.000000 0.000000 0.000000 10.000000 
weapon_bone 0.000000 0.000000 0.000000 0.000000 0.000000 0.000000 10.000000 
Bip01_Head 0.000000 0.000000 0.000000 0.000000 0.000000 0.000000 10.000000 
eye_left_bone 0.000000 0.000000 0.000000 0.000000 0.000000 0.000000 10.000000 
eye_right_bone 0.000000 0.000000 0.000000 0.000000 0.000000 0.000000 10.000000 
L_forearm 0.000000 0.000000 0.000000 0.000000 0.000000 0.000000 10.000000 
L_front_hand 0.000000 0.000000 0.000000 0.000000 0.000000 0.000000 10.000000 
L_weapon_bone 0.000000 0.000000 0.000000 0.000000 0.000000 0.000000 10.000000 
L_front_hand01_01 0.000000 0.000000 0.000000 0.000000 0.000000 0.000000 10.000000 
L_front_hand02_01 0.000000 0.000000 0.000000 0.000000 0.000000 0.000000 10.000000 
L_front_hand03_01 0.000000 0.000000 0.000000 0.000000 0.000000 0.000000 10.000000 
L_front_hand01_02 0.000000 0.000000 0.000000 0.000000 0.000000 0.000000 10.000000 
L_front_hand02_02 0.000000 0.000000 0.000000 0.000000 0.000000 0.000000 10.000000 
L_front_hand03_02 0.000000 0.000000 0.000000 0.000000 0.000000 0.000000 10.000000 
R_forearm 0.000000 0.000000 0.000000 0.000000 0.000000 0.000000 10.000000 
R_front_hand 0.000000 0.000000 0.000000 0.000000 0.000000 0.000000 10.000000 
R_weapon_bone 0.000000 0.000000 0.000000 0.000000 0.000000 0.000000 10.000000 
R_front_hand01_01 0.000000 0.000000 0.000000 0.000000 0.000000 0.000000 10.000000 
R_front_hand02_01 0.000000 0.000000 0.000000 0.000000 0.000000 0.000000 10.000000 
R_front_hand03_01 0.000000 0.000000 0.000000 0.000000 0.000000 0.000000 10.000000 
R_front_hand01_02 0.000000 0.000000 0.000000 0.000000 0.000000 0.000000 10.000000 
R_front_hand02_02 0.000000 0.000000 0.000000 0.000000 0.000000 0.000000 10.000000 
R_front_hand03_02 0.000000 0.000000 0.000000 0.000000 0.000000 0.000000 10.000000 
null_rope01_connect 0.000000 0.000000 0.000000 0.000000 0.000000 0.000000 10.000000 
Rope1_Seg01 0.000000 0.000000 0.000000 0.000000 0.000000 0.000000 10.000000 
Rope1_Seg02 0.000000 0.000000 0.000000 0.000000 0.000000 0.000000 10.000000 
Rope1_Seg03 0.000000 0.000000 0.000000 0.000000 0.000000 0.000000 10.000000 
Rope1_Seg04 0.000000 0.000000 0.000000 0.000000 0.000000 0.000000 10.000000 
Rope1_Seg05 0.000000 0.000000 0.000000 0.000000 0.000000 0.000000 10.000000 
Rope1_Seg06 0.000000 0.000000 0.000000 0.000000 0.000000 0.000000 10.000000 
Rope1_Seg07 0.000000 0.000000 0.000000 0.000000 0.000000 0.000000 10.000000 
Rope1_Seg09 0.000000 0.000000 0.000000 0.000000 0.000000 0.000000 10.000000 
L_mid_hand01 0.000000 0.000000 0.000000 0.000000 0.000000 0.000000 10.000000 
L_mid_hand02 0.000000 0.000000 0.000000 0.000000 0.000000 0.000000 10.000000 
L_mid_hand03 0.000000 0.000000 0.000000 0.000000 0.000000 0.000000 10.000000 
null_rope02_connect 0.000000 0.000000 0.000000 0.000000 0.000000 0.000000 10.000000 
Rope2_Seg01 0.000000 0.000000 0.000000 0.000000 0.000000 0.000000 10.000000 
Rope2_Seg02 0.000000 0.000000 0.000000 0.000000 0.000000 0.000000 10.000000 
Rope2_Seg03 0.000000 0.000000 0.000000 0.000000 0.000000 0.000000 10.000000 
Rope2_Seg04 0.000000 0.000000 0.000000 0.000000 0.000000 0.000000 10.000000 
Rope2_Seg05 0.000000 0.000000 0.000000 0.000000 0.000000 0.000000 10.000000 
Rope2_Seg06 0.000000 0.000000 0.000000 0.000000 0.000000 0.000000 10.000000 
Rope2_Seg07 0.000000 0.000000 0.000000 0.000000 0.000000 0.000000 10.000000 
Rope2_Seg09 0.000000 0.000000 0.000000 0.000000 0.000000 0.000000 10.000000 
R_mid_hand01 0.000000 0.000000 0.000000 0.000000 0.000000 0.000000 10.000000 
R_mid_hand02 0.000000 0.000000 0.000000 0.000000 0.000000 0.000000 10.000000 
R_mid_hand03 0.000000 0.000000 0.000000 0.000000 0.000000 0.000000 10.000000 
spine02 0.000000 0.000000 0.000000 0.000000 0.000000 0.000000 10.000000 
spine03 0.000000 0.000000 0.000000 0.000000 0.000000 0.000000 10.000000 
pelvis 0.000000 0.000000 0.000000 0.000000 0.000000 0.000000 10.000000 
null_rope03_connect 0.000000 0.000000 0.000000 0.000000 0.000000 0.000000 10.000000 
null_rope04_connect 0.000000 0.000000 0.000000 0.000000 0.000000 0.000000 10.000000 
Rope3_Seg01 0.000000 0.000000 0.000000 0.000000 0.000000 0.000000 10.000000 
Rope3_Seg02 0.000000 0.000000 0.000000 0.000000 0.000000 0.000000 10.000000 
Rope3_Seg03 0.000000 0.000000 0.000000 0.000000 0.000000 0.000000 10.000000 
Rope3_Seg04 0.000000 0.000000 0.000000 0.000000 0.000000 0.000000 10.000000 
Rope3_Seg05 0.000000 0.000000 0.000000 0.000000 0.000000 0.000000 10.000000 
Rope3_Seg06 0.000000 0.000000 0.000000 0.000000 0.000000 0.000000 10.000000 
Rope3_Seg07 0.000000 0.000000 0.000000 0.000000 0.000000 0.000000 10.000000 
Rope3_Seg08 0.000000 0.000000 0.000000 0.000000 0.000000 0.000000 10.000000 
Rope3_Seg09 0.000000 0.000000 0.000000 0.000000 0.000000 0.000000 10.000000 
R_rear_hand01 0.000000 0.000000 0.000000 0.000000 0.000000 0.000000 10.000000 
R_rear_hand02 0.000000 0.000000 0.000000 0.000000 0.000000 0.000000 10.000000 
R_rear_hand03 0.000000 0.000000 0.000000 0.000000 0.000000 0.000000 10.000000 
Rope4_Seg01 0.000000 0.000000 0.000000 0.000000 0.000000 0.000000 10.000000 
Rope4_Seg02 0.000000 0.000000 0.000000 0.000000 0.000000 0.000000 10.000000 
Rope4_Seg03 0.000000 0.000000 0.000000 0.000000 0.000000 0.000000 10.000000 
Rope4_Seg04 0.000000 0.000000 0.000000 0.000000 0.000000 0.000000 10.000000 
Rope4_Seg05 0.000000 0.000000 0.000000 0.000000 0.000000 0.000000 10.000000 
Rope4_Seg06 0.000000 0.000000 0.000000 0.000000 0.000000 0.000000 10.000000 
Rope4_Seg07 0.000000 0.000000 0.000000 0.000000 0.000000 0.000000 10.000000 
Rope4_Seg08 0.000000 0.000000 0.000000 0.000000 0.000000 0.000000 10.000000 
Rope4_Seg09 0.000000 0.000000 0.000000 0.000000 0.000000 0.000000 10.000000 
L_rear_hand01 0.000000 0.000000 0.000000 0.000000 0.000000 0.000000 10.000000 
L_rear_hand02 0.000000 0.000000 0.000000 0.000000 0.000000 0.000000 10.000000 
L_rear_hand03 0.000000 0.000000 0.000000 0.000000 0.000000 0.000000 10.000000 
#Beginning of Data. Separated by tabs
#Fr	Tx	Ty	Tz	Rx	Ry	Rz	SF
[MASTER]
16 -1383.904785 57.872128 1700.365479 0.001660 0.001660 0.001660 2193.122070
17 -1369.014648 110.501740 1607.707031 0.001660 0.001660 0.001660 2114.505371
[root]
16 37.772522 -68.898338 345.338593 -160.842987 -14.340543 -71.342224 354.164490
17 26.228943 -101.397697 421.178436 -161.550186 -14.124834 -71.295876 434.005432
[chest]
16 -84.512650 -34.090519 0.000000 -31.828531 -18.765888 176.783600 91.129311
17 -84.512650 -34.090519 0.000000 -34.240158 -20.156960 177.613586 91.129311
[L_mid_tent01]
16 27.299133 22.179199 -249.918716 -11.860168 14.882796 35.126499 252.381714
17 27.299135 22.179203 -249.918716 -11.744635 14.715261 35.428249 252.381714
[R_mid_tent01]
16 23.228794 24.509907 226.238495 174.112350 -8.940792 49.066261 228.744751
17 23.228794 24.509907 226.238495 175.551483 -14.096173 40.372253 228.744751
[spine01]
16 -0.361383 -0.195265 0.000000 0.001957 0.001296 22.998638 0.410763
17 -0.361383 -0.195265 0.000000 0.001958 0.001295 23.020086 0.410763
[Bip01_Neck]
16 165.484543 71.581718 0.000119 176.643677 -1.657967 43.431911 180.302734
17 165.484543 71.581718 0.000119 176.643677 -1.657967 43.431911 180.302734
[L_humerus]
16 -13.983130 -135.272980 -120.471481 171.749084 20.768757 -92.106758 181.680161
17 -13.983130 -135.272980 -120.471481 170.555710 34.826279 -94.526085 181.680161
[R_humerus]
16 -13.983309 -135.273102 125.287651 -163.901199 -24.378750 -96.714424 184.909012
17 -13.983309 -135.273102 125.287651 -148.882156 -41.968067 -110.998283 184.909012
[weapon_bone]
16 235.964890 -300.705902 0.000000 0.000000 -89.951546 -128.212341 382.234833
17 235.964890 -300.705902 0.000000 0.000000 -89.951546 -128.212341 382.234833
[Bip01_Head]
16 213.649628 185.143661 19.159290 -5.518947 -1.166957 -43.898571 283.357422
17 213.638321 185.175308 18.750711 -14.197826 -0.945232 -43.897614 283.342224
[eye_left_bone]
16 -24.626970 125.451866 -64.772606 0.000000 -90.000000 -99.840431 143.318359
17 -24.626970 125.451866 -64.772606 0.000000 -90.000000 -99.840431 143.318359
[eye_right_bone]
16 -24.626970 125.451866 64.327362 0.000000 -89.965736 80.156380 143.117676
17 -24.626970 125.451866 64.327362 0.000000 -89.965736 80.156380 143.117676
[L_forearm]
16 322.776093 0.000000 -0.000119 0.000139 -0.002343 -96.796608 322.776093
17 322.776093 0.000000 -0.000119 0.000143 -0.002343 -96.981781 322.776093
[L_front_hand]
16 241.149185 -0.042021 -3.300071 173.946381 -1.836799 -27.422596 241.171753
17 241.149185 -0.042021 -3.300071 173.676056 -1.836660 -27.421837 241.171753
[L_weapon_bone]
16 156.183838 0.000000 0.000000 0.000014 0.000007 0.000001 156.183838
17 156.183838 0.000000 0.000000 0.000014 0.000007 0.000001 156.183838
[L_front_hand01_01]
16 86.095154 20.947098 -0.655860 -0.273295 -0.533469 64.985298 88.609184
17 86.095154 20.947098 -0.655860 -0.255041 -0.543544 62.886440 88.609184
[L_front_hand02_01]
16 86.935165 -11.437475 24.513514 140.772385 -54.262844 -45.183468 91.046425
17 86.935165 -11.437475 24.513514 138.610443 -52.904121 -42.492565 91.046425
[L_front_hand03_01]
16 86.637497 -14.123976 -20.424902 -141.183044 52.494118 -47.265888 90.126129
17 86.637497 -14.123976 -20.424902 -139.133484 51.150555 -44.663296 90.126129
[L_front_hand01_02]
16 71.020905 -0.000179 0.000030 0.000315 -0.002326 -105.448143 71.020905
17 71.020905 -0.000179 0.000030 0.000315 -0.002326 -105.400543 71.020905
[L_front_hand02_02]
16 71.020927 -0.000119 0.000060 0.000315 -0.002326 -105.448143 71.020927
17 71.020927 -0.000119 0.000060 0.000315 -0.002326 -105.400543 71.020927
[L_front_hand03_02]
16 71.020905 -0.000060 0.000060 0.000315 -0.002326 -105.448143 71.020905
17 71.020905 -0.000060 0.000060 0.000315 -0.002326 -105.400543 71.020905
[R_forearm]
16 322.776428 -0.000060 0.000030 0.212717 0.018065 -95.336349 322.776428
17 322.776428 -0.000060 0.000030 0.212687 0.018406 -95.520317 322.776428
[R_front_hand]
16 238.847015 -0.006795 2.210259 -2.635298 -10.645461 -26.312506 238.857239
17 238.847015 -0.006795 2.210259 -2.635298 -10.645461 -26.312506 238.857239
[R_weapon_bone]
16 155.664093 0.002503 -0.000030 0.003487 0.001180 -90.988930 155.664078
17 155.664093 0.002503 -0.000030 0.003487 0.001180 -90.988930 155.664078
[R_front_hand01_01]
16 87.624611 14.231146 22.918642 -138.890259 -53.085796 42.950848 91.683487
17 87.624611 14.231146 22.918642 -138.456909 -52.798630 42.405624 91.683487
[R_front_hand02_01]
16 89.356956 14.367283 -19.491137 139.720169 51.522045 45.641415 92.579636
17 89.356956 14.367283 -19.491137 139.300415 51.240429 45.105949 92.579636
[R_front_hand03_01]
16 87.286232 -22.307278 -0.143439 0.065790 -0.451534 -63.409447 90.091743
17 87.286232 -22.307278 -0.143439 0.064051 -0.451784 -62.968155 90.091743
[R_front_hand01_02]
16 71.020905 0.000060 0.000119 0.002323 -0.000334 106.381721 71.020905
17 71.020905 0.000060 0.000119 0.002323 -0.000334 106.381714 71.020905
[R_front_hand02_02]
16 71.020844 -0.000030 -0.000119 0.002323 -0.000334 106.381721 71.020836
17 71.020844 -0.000030 -0.000119 0.002323 -0.000334 106.381714 71.020836
[R_front_hand03_02]
16 71.020905 0.000000 0.000030 0.002323 -0.000334 106.381721 71.020905
17 71.020905 0.000000 0.000030 0.002323 -0.000334 106.381714 71.020905
[null_rope01_connect]
16 328.732483 0.000000 -0.000238 -161.859222 -6.903161 -109.865837 328.732483
17 328.732483 0.000000 -0.000238 -162.058487 -6.294961 -109.982979 328.732483
[Rope1_Seg01]
16 0.000065 -0.000054 0.000087 66.717842 -61.593266 39.589218 0.000122
17 0.000070 -0.000056 0.000083 36.913845 -69.892563 72.364624 0.000122
[Rope1_Seg02]
16 139.999863 -0.000179 0.000000 -0.169868 5.649703 3.450095 139.999863
17 139.999863 -0.000179 0.000000 0.447613 5.942454 1.911837 139.999863
[Rope1_Seg03]
16 139.999924 0.000060 -0.000060 -0.381662 11.071158 6.925402 139.999924
17 139.999924 0.000060 -0.000060 0.295660 10.452379 3.321852 139.999924
[Rope1_Seg04]
16 139.999924 -0.000060 -0.000119 0.244089 29.769287 20.490711 139.999924
17 139.999924 -0.000060 -0.000119 -1.858802 25.118608 6.747621 139.999924
[Rope1_Seg05]
16 139.999832 0.000119 -0.000060 -0.196691 32.830753 28.263617 139.999832
17 139.999832 0.000119 -0.000060 -8.819716 33.879658 12.126036 139.999832
[Rope1_Seg06]
16 139.999954 0.000119 -0.000060 -0.827468 1.739414 6.066108 139.999954
17 139.999954 0.000119 -0.000060 -2.619107 -1.552910 12.031848 139.999954
[Rope1_Seg07]
16 139.999985 0.000060 0.000000 0.637413 -9.494484 -0.125708 139.999985
17 139.999985 0.000060 0.000000 -1.515744 -9.474194 14.728410 139.999985
[Rope1_Seg09]
16 121.602913 0.000119 -0.000089 -89.793175 -1.359789 0.847147 121.602913
17 121.602913 0.000119 -0.000089 -89.793175 -1.359789 0.847147 121.602913
[L_mid_hand01]
16 103.859421 1.038730 8.195221 109.056198 -40.604698 -13.201401 104.187431
17 103.859421 1.038730 8.195221 109.203865 -41.086700 -13.424594 104.187431
[L_mid_hand02]
16 105.572853 -4.139662 -10.864139 -146.713593 31.476528 -37.902313 106.211075
17 105.572853 -4.139662 -10.864139 -146.975464 31.757511 -38.401608 106.211075
[L_mid_hand03]
16 104.641464 17.579376 -3.913581 -14.267233 12.322316 43.898396 106.179977
17 104.641464 17.579376 -3.913581 -14.157615 12.442541 44.406353 106.179977
[null_rope02_connect]
16 328.732849 0.000179 -0.000119 -4.205926 21.514563 114.643112 328.732849
17 328.732849 0.000179 -0.000119 -8.640913 21.980991 104.233620 328.732849
[Rope2_Seg01]
16 0.000087 0.000131 -0.000065 106.971260 67.616829 47.584106 0.000170
17 0.000090 0.000132 -0.000070 105.361115 66.986572 46.016819 0.000174
[Rope2_Seg02]
16 139.999741 -0.000060 -0.000119 -1.260451 21.430605 -11.975912 139.999756
17 139.999741 -0.000060 -0.000119 0.760838 20.497896 -16.301788 139.999756
[Rope2_Seg03]
16 140.000107 0.000030 0.000000 0.202419 7.023895 -3.593748 140.000107
17 140.000107 0.000030 0.000000 4.115024 5.693892 -6.983053 140.000107
[Rope2_Seg04]
16 139.999802 0.000000 -0.000060 0.946152 6.892884 -3.990277 139.999802
17 139.999802 0.000000 -0.000060 3.914026 7.400625 -6.363956 139.999802
[Rope2_Seg05]
16 139.999985 -0.000060 0.000119 14.690110 19.108192 -12.677902 139.999985
17 139.999985 -0.000060 0.000119 39.378757 19.440821 -16.412321 139.999985
[Rope2_Seg06]
16 139.999893 -0.000030 -0.000119 139.002945 19.837069 -24.756237 139.999893
17 139.999893 -0.000030 -0.000119 103.030235 4.084710 -26.019653 139.999893
[Rope2_Seg07]
16 139.999893 0.000060 -0.000060 3.918237 -15.200997 3.463369 139.999893
17 139.999893 0.000060 -0.000060 6.075263 -12.633867 1.217088 139.999893
[Rope2_Seg09]
16 121.338966 0.000089 -0.000060 33.793236 -1.359788 -0.847141 121.338966
17 121.338966 0.000089 -0.000060 33.793236 -1.359788 -0.847141 121.338966
[R_mid_hand01]
16 104.680779 11.144459 -10.335981 -33.085678 36.191685 44.913235 105.778534
17 104.680779 11.144459 -10.335981 -34.514381 34.853710 42.458721 105.778534
[R_mid_hand02]
16 104.070427 2.443552 8.231699 67.611237 -49.370296 17.897308 104.424065
17 104.070427 2.443552 8.231699 68.611877 -47.139297 16.550779 104.424065
[R_mid_hand03]
16 106.028137 -11.221827 -5.996406 -171.571182 13.427420 -54.737041 106.788818
17 106.028137 -11.221827 -5.996406 -171.008881 13.064262 -52.295349 106.788818
[spine02]
16 129.756927 0.001550 0.000119 -0.926159 -3.951521 5.350521 129.756927
17 129.756927 0.001550 0.000119 -0.906900 -3.959133 5.072506 129.756927
[spine03]
16 78.614044 0.081395 -4.898992 1.102085 4.132027 5.096122 78.766579
17 78.614044 0.081369 -4.898992 1.115924 4.127476 5.277410 78.766579
[pelvis]
16 169.435242 0.051022 0.000000 0.016549 -0.190515 -8.934390 169.435257
17 169.435242 0.051022 0.000000 0.015963 -0.190565 -8.582221 169.435257
[null_rope03_connect]
16 -1.257226 -2.466202 137.391083 -172.692291 -22.497274 -94.821030 137.418976
17 -1.257226 -2.466202 137.391083 -172.665085 -21.785938 -95.122696 137.418976
[null_rope04_connect]
16 -1.259640 -2.480268 -137.844437 -172.692291 -22.497274 -94.821030 137.872513
17 -1.259640 -2.480268 -137.844437 -172.665085 -21.785938 -95.122696 137.872513
[Rope3_Seg01]
16 0.000000 0.000000 0.000000 4.049153 -11.503022 -36.100559 0.000000
17 0.000000 0.000000 0.000000 11.825380 -2.987386 -42.555851 0.000000
[Rope3_Seg02]
16 139.999924 -0.000119 0.000060 18.077490 34.215321 -23.509205 139.999924
17 139.999924 -0.000119 0.000060 10.617060 28.688486 -32.431320 139.999924
[Rope3_Seg03]
16 139.999924 -0.000119 0.000119 -4.628750 30.646046 -57.417809 139.999924
17 139.999924 -0.000119 0.000119 -8.168375 22.233828 -50.161293 139.999924
[Rope3_Seg04]
16 139.999924 0.000119 0.000000 -1.884350 4.698211 -11.261753 139.999924
17 139.999924 0.000119 0.000000 -3.316936 5.339322 -11.071390 139.999924
[Rope3_Seg05]
16 139.999924 -0.000238 0.000060 -2.585307 3.745413 -10.685163 139.999924
17 139.999924 -0.000238 0.000060 -3.712619 3.855124 -10.505086 139.999924
[Rope3_Seg06]
16 139.999893 -0.000119 -0.000060 -11.130211 8.329402 -23.518736 139.999893
17 139.999893 -0.000119 -0.000060 -12.943075 8.068206 -21.969639 139.999893
[Rope3_Seg07]
16 139.999771 0.000060 -0.000119 -21.696976 13.352984 -24.652727 139.999771
17 139.999771 0.000060 -0.000119 -22.515518 13.342984 -21.958275 139.999771
[Rope3_Seg08]
16 139.999985 -0.000060 0.000000 -9.862604 8.855268 -7.818326 139.999985
17 139.999985 -0.000060 0.000000 -10.471174 9.322060 -7.070945 139.999985
[Rope3_Seg09]
16 90.185997 -0.000179 -0.000060 89.793228 -1.359877 -0.847183 90.185997
17 90.185997 -0.000179 -0.000060 89.793228 -1.359877 -0.847183 90.185997
[R_rear_hand01]
16 103.366196 -6.073594 -10.757982 -176.575333 -17.742334 -55.492535 104.101845
17 103.366196 -6.073594 -10.757982 -175.575531 -18.183168 -53.509930 104.101845
[R_rear_hand02]
16 100.509819 12.039542 -7.992327 -28.108641 27.848612 44.189137 101.543350
17 100.509819 12.039542 -7.992327 -29.245224 26.638008 41.706211 101.543350
[R_rear_hand03]
16 101.539970 5.215704 5.435467 81.609138 -47.214466 10.038949 101.819031
17 101.539970 5.215704 5.435467 81.983536 -44.720295 9.521895 101.819031
[Rope4_Seg01]
16 0.000010 0.000022 -0.000087 -91.648399 -2.328142 -49.258137 0.000090
17 0.000010 0.000021 -0.000083 -99.587776 -7.980648 -55.311226 0.000086
[Rope4_Seg02]
16 139.999985 0.000060 0.000119 -33.972542 18.297352 -27.756514 139.999985
17 139.999985 0.000060 0.000119 -22.170845 21.272209 -18.386932 139.999985
[Rope4_Seg03]
16 139.999924 0.000000 -0.000238 -28.034815 49.024746 -34.601482 139.999924
17 139.999924 0.000000 -0.000238 -16.965097 45.525265 -22.937248 139.999924
[Rope4_Seg04]
16 139.999985 0.000000 0.000119 2.038622 17.031202 -5.216942 139.999985
17 139.999985 0.000000 0.000119 3.029331 20.692329 -6.026860 139.999985
[Rope4_Seg05]
16 139.999802 -0.000060 -0.000119 1.832818 7.527348 -1.325243 139.999802
17 139.999802 -0.000060 -0.000119 2.646820 8.158874 -1.991873 139.999802
[Rope4_Seg06]
16 139.999924 0.000000 0.000060 3.656626 11.802184 -1.013164 139.999924
17 139.999924 0.000000 0.000060 5.090259 11.963908 -2.292167 139.999924
[Rope4_Seg07]
16 139.999802 0.000000 0.000000 19.175982 27.734737 -3.716208 139.999802
17 139.999802 0.000000 0.000000 27.569101 29.609358 -8.465911 139.999802
[Rope4_Seg08]
16 139.999924 0.000000 0.000119 32.748051 17.996403 -10.375187 139.999924
17 139.999924 0.000000 0.000119 35.741718 16.026161 -17.142715 139.999924
[Rope4_Seg09]
16 90.185791 0.000060 0.000060 -135.617828 2.228885 0.850567 90.185791
17 90.185791 0.000060 0.000060 -135.617828 2.228885 0.850567 90.185791
[L_rear_hand01]
16 101.696655 -8.392275 -7.654577 -30.608620 -25.023813 141.417831 102.329041
17 101.696655 -8.392275 -7.654577 -29.807377 -26.000988 139.554398 102.329041
[L_rear_hand02]
16 102.726799 -1.568258 5.773216 82.398407 41.509426 171.081650 102.900848
17 102.726799 -1.568258 5.773216 82.157768 43.437939 170.726135 102.900848
[L_rear_hand03]
16 104.552910 9.721220 -10.420293 -164.917755 -19.749290 -139.167572 105.519653
17 104.552910 9.721220 -10.420293 -165.604721 -20.244781 -137.169205 105.519653
